<?xml version="1.0" standalone="no"?><!DOCTYPE svg PUBLIC "-//W3C//DTD SVG 1.1//EN" "http://www.w3.org/Graphics/SVG/1.1/DTD/svg11.dtd"><svg t="1515201016934" class="icon" style="" viewBox="0 0 1024 1024" version="1.1" xmlns="http://www.w3.org/2000/svg" p-id="3615" xmlns:xlink="http://www.w3.org/1999/xlink" width="30" height="30"><defs><style type="text/css"></style></defs><path d="M550.912 390.656c-35.84 35.328-68.608 70.144-98.304 107.52-31.232 38.912-50.688 83.456-59.392 132.608-4.096 22.528-4.608 45.568-5.12 68.608-0.512 64.512 0 128.512 0 193.024v21.504c-44.544 2.56-87.552 0.512-132.608 1.024-0.512-7.68-1.536-13.824-1.536-19.968 0-73.728 0-147.456 0.512-221.184 0.512-97.28 33.28-183.808 94.72-258.56 29.696-35.84 61.952-69.632 93.184-104.448 4.096-4.608 10.752-7.168 18.432-12.288-18.432-11.776-30.72-20.48-43.52-28.672-22.528-14.848-45.568-29.184-68.096-44.544-4.608-3.072-9.728-9.728-9.728-14.848-0.512-8.192 7.68-8.704 14.336-9.728 70.656-13.824 141.312-27.648 211.456-41.472 45.568-8.704 91.136-17.92 137.216-26.624 2.56-0.512 5.632-1.024 10.24-1.536-0.512 5.632-0.512 9.728-1.024 14.336-22.016 112.64-44.032 225.792-66.048 338.432-1.536 7.68 0.512 19.456-11.264 21.504-11.264 2.048-14.336-8.704-18.944-15.872-20.992-32.256-41.984-64.512-64.512-98.816z" p-id="3616" fill="#e6e6e6"></path></svg>