<?xml version="1.0" standalone="no"?><!DOCTYPE svg PUBLIC "-//W3C//DTD SVG 1.1//EN" "http://www.w3.org/Graphics/SVG/1.1/DTD/svg11.dtd"><svg t="1515200988557" class="icon" style="" viewBox="0 0 1024 1024" version="1.1" xmlns="http://www.w3.org/2000/svg" p-id="2135" xmlns:xlink="http://www.w3.org/1999/xlink" width="30" height="30"><defs><style type="text/css"></style></defs><path d="M482.816 391.68c-11.264 17.408-22.528 34.304-33.28 50.688-11.776 17.92-22.528 35.84-34.816 53.248-3.072 4.608-9.728 8.704-15.36 9.216-2.56 0-7.68-8.192-8.704-12.8-23.04-117.248-46.08-234.496-68.608-351.744-0.512-2.048-0.512-4.608-1.024-8.704 5.12 0.512 9.728 1.024 13.824 1.536 112.64 22.016 225.28 43.52 338.432 65.536 3.072 0.512 6.144 1.024 8.704 2.048 4.608 2.56 11.776 4.608 13.824 8.192 3.584 8.192-3.072 12.8-9.216 16.384l-92.16 59.904c-4.608 3.072-9.728 6.656-15.36 10.752 9.216 9.728 17.92 18.944 26.112 27.648 37.376 38.912 73.216 78.336 103.936 122.88 48.64 70.656 72.192 148.992 72.192 234.496v234.496h-133.632c-0.512-7.168-1.024-13.824-1.536-20.48-0.512-76.288-0.512-152.064-1.024-228.352 0-29.184-6.144-57.344-16.896-84.48-12.8-32.256-28.16-64-51.2-90.112-28.16-31.744-57.344-62.464-86.016-93.696-2.048-2.56-4.608-4.096-8.192-6.656z" p-id="2136" fill="#e6e6e6"></path></svg>