<?xml version="1.0" standalone="no"?><!DOCTYPE svg PUBLIC "-//W3C//DTD SVG 1.1//EN" "http://www.w3.org/Graphics/SVG/1.1/DTD/svg11.dtd"><svg t="1515201085992" class="icon" style="" viewBox="0 0 1024 1024" version="1.1" xmlns="http://www.w3.org/2000/svg" p-id="5508" xmlns:xlink="http://www.w3.org/1999/xlink" width="30" height="30"><defs><style type="text/css"></style></defs><path d="M514.56 105.984c4.096 5.632 7.68 10.24 10.752 14.848 61.952 92.16 123.904 183.808 185.344 275.968 4.096 5.632 12.288 11.264 7.168 19.968-5.632 9.216-14.848 5.12-22.528 3.584-35.328-7.168-70.144-14.848-105.472-22.528-2.56-0.512-5.632-1.024-10.24-1.536v529.408H449.536V395.264c-32.768 7.168-63.488 13.312-93.696 19.968-8.192 1.536-15.872 3.584-24.064 5.12-7.168 1.024-15.36 4.608-20.992-3.584-5.12-8.192 2.048-13.312 5.632-18.944 49.664-74.752 99.84-148.992 150.016-223.232 13.312-19.968 27.136-39.936 40.448-60.416 2.048-1.536 4.608-4.096 7.68-8.192z" p-id="5509" fill="#e6e6e6"></path></svg>