<?xml version="1.0" standalone="no"?><!DOCTYPE svg PUBLIC "-//W3C//DTD SVG 1.1//EN" "http://www.w3.org/Graphics/SVG/1.1/DTD/svg11.dtd"><svg t="1515148828401" class="icon" style="" viewBox="0 0 1024 1024" version="1.1" xmlns="http://www.w3.org/2000/svg" p-id="2806" xmlns:xlink="http://www.w3.org/1999/xlink" width="30" height="30"><defs><style type="text/css"></style></defs><path d="M512.000256 69.888477c243.763078 0 442.111779 198.348701 442.111779 442.111779 0 243.763078-198.348701 442.111779-442.111779 442.111779-243.763078 0-442.111779-198.348701-442.111779-442.111779 0-243.763078 198.348701-442.111779 442.111779-442.111779M512.000256 1024a510.207745 510.207745 0 0 0 362.035019-149.964725A510.207745 510.207745 0 0 0 1024 512.000256a510.310145 510.310145 0 0 0-149.964725-362.035019A510.258945 510.258945 0 0 0 512.000256 0.000512a510.258945 510.258945 0 0 0-362.035019 149.964725A510.258945 510.258945 0 0 0 0.000512 512.000256a510.207745 510.207745 0 0 0 149.964725 362.035019A510.207745 510.207745 0 0 0 512.000256 1024.0512zM391.475516 408.064308h260.09587l-99.17435-96.102352a32.051184 32.051184 0 0 1 0-46.335977 34.508783 34.508783 0 0 1 47.820776 0.0512l157.900721 153.292724a32.153584 32.153584 0 0 1 0 46.438376l-156.927922 152.319924a34.201583 34.201583 0 0 1-23.910388 9.625595 34.201583 34.201583 0 0 1-23.859188-9.625595 32.358384 32.358384 0 0 1 0-46.591977l100.24955-97.535951H425.984299v261.631869a33.279983 33.279983 0 0 1-33.791983 32.819184 33.279983 33.279983 0 0 1-33.740783-32.767984V441.037091c0-18.073591 14.438393-33.075183 33.075183-33.075183z" fill="#ffda00" p-id="2807"></path></svg>