<?xml version="1.0" encoding="utf-8"?>
<!-- Generator: Adobe Illustrator 16.0.0, SVG Export Plug-In . SVG Version: 6.00 Build 0)  -->
<!DOCTYPE svg PUBLIC "-//W3C//DTD SVG 1.1//EN" "http://www.w3.org/Graphics/SVG/1.1/DTD/svg11.dtd">
<svg version="1.1" id="图层_1" xmlns="http://www.w3.org/2000/svg" xmlns:xlink="http://www.w3.org/1999/xlink" x="0px" y="0px"
	 width="30px" height="30px" viewBox="0 0 30 30" enable-background="new 0 0 30 30" xml:space="preserve">
<g>
	<path fill="#FF0000" d="M15.667,8.471c-0.36-0.375-0.957-0.389-1.332-0.029c-0.01,0.009-0.02,0.019-0.029,0.029l-4.462,4.598
		c-0.182,0.188-0.283,0.439-0.282,0.7c-0.001,0.261,0.101,0.512,0.282,0.699c0.363,0.377,0.963,0.388,1.34,0.024
		c0.009-0.008,0.017-0.016,0.025-0.024l2.856-2.937v9.643c0,0.525,0.426,0.951,0.952,0.951c0.526,0,0.952-0.426,0.952-0.951h0.016
		v-9.582l2.815,2.905c0.358,0.375,0.953,0.388,1.328,0.03c0.01-0.009,0.02-0.02,0.029-0.03c0.376-0.392,0.375-1.01-0.002-1.401
		L15.667,8.471z"/>
	<path fill="#FF0000" d="M25.607,4.395c-2.811-2.818-6.627-4.399-10.606-4.394C11.021-0.005,7.204,1.577,4.395,4.395
		c-2.817,2.81-4.399,6.627-4.394,10.606h-0.002c-0.005,3.979,1.577,7.797,4.396,10.606c2.81,2.817,6.627,4.399,10.606,4.394
		c3.979,0.006,7.797-1.576,10.606-4.394c2.817-2.81,4.398-6.627,4.394-10.606C30.006,11.021,28.426,7.204,25.607,4.395z
		 M15.001,27.954c-7.142,0-12.953-5.812-12.953-12.953S7.859,2.048,15.001,2.048c7.14,0,12.952,5.811,12.952,12.953
		S22.143,27.954,15.001,27.954z"/>
</g>
</svg>
