<?xml version="1.0" standalone="no"?><!DOCTYPE svg PUBLIC "-//W3C//DTD SVG 1.1//EN" "http://www.w3.org/Graphics/SVG/1.1/DTD/svg11.dtd"><svg t="1515148679693" class="icon" style="" viewBox="0 0 1024 1024" version="1.1" xmlns="http://www.w3.org/2000/svg" p-id="1872" xmlns:xlink="http://www.w3.org/1999/xlink" width="30" height="30"><defs><style type="text/css"></style></defs><path d="M512.000256 69.888477C268.237178 69.888477 69.888477 268.288378 69.888477 512.000256c0 243.763078 198.348701 442.111779 442.111779 442.111779 243.763078 0 442.111779-198.348701 442.111779-442.111779 0-243.763078-198.348701-442.111779-442.111779-442.111779M512.000256 1024a510.207745 510.207745 0 0 1-362.035019-149.964725A510.207745 510.207745 0 0 1 0.000512 512.000256a510.310145 510.310145 0 0 1 149.964725-362.035019A510.258945 510.258945 0 0 1 512.000256 0.000512a510.258945 510.258945 0 0 1 362.035019 149.964725A510.258945 510.258945 0 0 1 1024 512.000256a510.207745 510.207745 0 0 1-149.964725 362.035019A510.207745 510.207745 0 0 1 512.000256 1024.0512zM632.524996 408.064308h-260.09587l99.17435-96.102352a32.051184 32.051184 0 0 0 0-46.335977 34.508783 34.508783 0 0 0-47.820776 0.0512L265.881979 418.918703a32.153584 32.153584 0 0 0 0 46.438376l156.927922 152.319924a34.201583 34.201583 0 0 0 23.910388 9.625595 34.201583 34.201583 0 0 0 23.859188-9.625595 32.358384 32.358384 0 0 0 0-46.591977L370.329927 473.549075h227.737486v261.631869c0 18.124791 15.103992 32.819184 33.791983 32.819184a33.279983 33.279983 0 0 0 33.740783-32.767984V441.037091a32.972784 32.972784 0 0 0-33.075183-33.075183z" fill="#ff0000" p-id="1873"></path></svg>