<?xml version="1.0" standalone="no"?><!DOCTYPE svg PUBLIC "-//W3C//DTD SVG 1.1//EN" "http://www.w3.org/Graphics/SVG/1.1/DTD/svg11.dtd"><svg t="1515070637313" class="icon" style="" viewBox="0 0 1024 1024" version="1.1" xmlns="http://www.w3.org/2000/svg" p-id="13052" xmlns:xlink="http://www.w3.org/1999/xlink" width="30" height="30"><defs><style type="text/css"></style></defs><path d="M787.613538 590.454154v0.472615l-0.157538 1.417846c-2.284308 23.079385-24.497231 41.196308-51.436308 41.196308H735.704615c-28.593231 0-51.672615-20.243692-51.672615-45.213538V352.098462h-21.110154v609.988923c0 1.417846 0.236308 2.835692 0.236308 4.411077 0 31.665231-29.380923 57.344-65.536 57.344-36.391385 0-65.614769-25.678769-65.772308-57.344V690.884923H493.883077v271.36l0.157538 4.411077c0 31.665231-29.302154 57.344-65.536 57.344-36.155077 0-65.536-25.678769-65.536-57.344V352.098462h-23.315692v236.228923c0 24.969846-23.158154 45.213538-51.672615 45.213538-28.514462 0-51.672615-20.243692-51.672616-45.213538V360.369231c0-85.622154 72.231385-156.672 166.281846-168.802462 26.387692 27.096615 65.693538 44.347077 109.410462 44.347077 43.874462 0 82.944-17.250462 109.410462-44.347077C715.460923 203.697231 787.692308 274.589538 787.692308 360.369231v227.958154l-0.07877 2.126769zM594.944 193.299692c-1.417846 1.102769-3.072 2.126769-4.568615 3.308308l-4.489847 2.993231-0.236307 0.078769c-1.417846 1.024-3.072 1.890462-4.568616 2.914462l-0.315077 0.157538c-1.575385 0.708923-3.072 1.654154-4.726153 2.363077l-0.472616 0.315077a41.196308 41.196308 0 0 1-4.568615 2.284308c-0.157538 0.157538-0.472615 0.157538-0.630154 0.236307a29.932308 29.932308 0 0 1-4.568615 2.048l-1.024 0.393846-4.332308 1.732923a4.174769 4.174769 0 0 1-1.181539 0.393847l-4.411076 1.496615-1.417847 0.393846c-1.496615 0.315077-2.756923 0.866462-4.253538 1.181539a26.230154 26.230154 0 0 0-1.811692 0.393846l-3.938462 1.024a24.733538 24.733538 0 0 0-2.126769 0.393846 30.641231 30.641231 0 0 1-3.702154 0.708923l-2.599385 0.472615-3.465846 0.393847c-0.945231 0.157538-2.126769 0.157538-3.072 0.236307-1.181538 0.157538-2.126769 0.315077-3.072 0.315077l-3.938461 0.315077-2.441846 0.157539-6.380308 0.078769-6.380308-0.078769-2.441846-0.157539a31.901538 31.901538 0 0 1-3.859692-0.315077c-1.181538 0-2.126769-0.157538-3.15077-0.315077a40.96 40.96 0 0 1-3.072-0.393846c-1.102769 0-2.284308-0.236308-3.387076-0.393846a65.063385 65.063385 0 0 1-2.756924-0.472615c-1.339077-0.236308-2.678154-0.393846-3.780923-0.708924l-2.284307-0.393846-3.938462-1.024-1.969231-0.393846a38.675692 38.675692 0 0 1-4.01723-1.181538l-1.654154-0.393846c-1.496615-0.472615-2.756923-1.024-4.253539-1.417847-0.472615-0.157538-0.787692-0.157538-1.339077-0.472615l-4.332307-1.732923-1.024-0.393846c-1.417846-0.551385-3.072-1.102769-4.568616-1.890462-0.315077-0.078769-0.630154-0.078769-0.787692-0.236307l-4.568615-2.284308-0.472616-0.315077c-1.654154-0.708923-3.308308-1.654154-4.726154-2.363077l-0.315077-0.157538-4.726153-2.914462-0.236308-0.078769-4.489846-2.993231h-0.236308l-4.332308-3.308308c-26.624-20.243692-43.401846-50.097231-42.92923-83.180307C386.599385 49.388308 442.840615 0 512.472615 0c69.474462 0 125.873231 49.230769 125.873231 110.119385 0 33.240615-16.777846 62.936615-43.401846 83.180307z" p-id="13053" fill="#e6e6e6"></path></svg>